<svg width="17" height="16" viewBox="0 0 17 16" fill="none" xmlns="http://www.w3.org/2000/svg">
<path d="M8.25 8.66659C8.61819 8.66659 8.91667 8.36811 8.91667 7.99992C8.91667 7.63173 8.61819 7.33325 8.25 7.33325C7.88181 7.33325 7.58334 7.63173 7.58334 7.99992C7.58334 8.36811 7.88181 8.66659 8.25 8.66659Z" stroke="#2563EB" stroke-linecap="round" stroke-linejoin="round"/>
<path d="M12.9167 8.66659C13.2849 8.66659 13.5833 8.36811 13.5833 7.99992C13.5833 7.63173 13.2849 7.33325 12.9167 7.33325C12.5485 7.33325 12.25 7.63173 12.25 7.99992C12.25 8.36811 12.5485 8.66659 12.9167 8.66659Z" stroke="#2563EB" stroke-linecap="round" stroke-linejoin="round"/>
<path d="M3.58333 8.66659C3.95152 8.66659 4.25 8.36811 4.25 7.99992C4.25 7.63173 3.95152 7.33325 3.58333 7.33325C3.21514 7.33325 2.91666 7.63173 2.91666 7.99992C2.91666 8.36811 3.21514 8.66659 3.58333 8.66659Z" stroke="#2563EB" stroke-linecap="round" stroke-linejoin="round"/>
</svg>
